<?xml version="1.0" encoding="utf-8"?>
<!-- Generator: Adobe Illustrator 22.1.0, SVG Export Plug-In . SVG Version: 6.00 Build 0)  -->
<svg version="1.1" id="Layer_1" xmlns="http://www.w3.org/2000/svg" xmlns:xlink="http://www.w3.org/1999/xlink" x="0px" y="0px"
	 viewBox="0 0 160 32.7" style="enable-background:new 0 0 160 32.7;" xml:space="preserve">
<style type="text/css">
	.st0{fill:#202950;}
	.st1{fill:#FEFEFE;}
	.st2{fill:#D11711;}
	.st3{fill:#B1DCE2;}
	.st4{fill:#E2BE00;}
	.st5{fill:#919699;}
	.st6{fill:#A7C713;}
</style>
<title>Logo@2x</title>
<desc>Created with Sketch.</desc>
<g id="Symbols">
	<g id="logo">
		<g id="Logo">
			<polygon id="Fill-1" class="st0" points="0,32.7 159.9,32.7 159.9,0 0,0 			"/>
			<path id="Fill-3" class="st1" d="M42.4,8.4c0.1,0.1,6.9,15.5,7,15.8h-1.7c-0.1-0.1-1.8-4.1-1.8-4.1c0,0-0.1-0.1-0.1-0.1h-8.5
				c0,0-0.1,0-0.1,0.1c0,0-1.8,4-1.8,4.1h-1.6c0.1-0.3,7-15.6,7-15.8H42.4z M40.8,8.2c0,0-0.1,0-0.1,0.1l-7.1,16c0,0,0,0.1,0,0.1
				c0,0,0.1,0.1,0.1,0.1h1.8c0,0,0.1,0,0.1-0.1c0,0,1.8-4,1.8-4.1h8.4c0.1,0.1,1.8,4.1,1.8,4.1c0,0,0.1,0.1,0.1,0.1h1.9
				c0,0,0.1,0,0.1-0.1c0,0,0-0.1,0-0.1l-7.1-16c0,0-0.1-0.1-0.1-0.1H40.8z"/>
			<path id="Fill-5" class="st1" d="M41.6,10.7c0.2,0.4,3.3,7.4,3.4,7.7h-6.8C38.3,18.1,41.4,11.1,41.6,10.7 M41.5,10.3l-3.6,8.1
				c0,0,0,0.1,0,0.1c0,0,0.1,0.1,0.1,0.1h7.1c0,0,0.1,0,0.1-0.1c0,0,0-0.1,0-0.1l-3.6-8.1c0,0-0.1-0.1-0.1-0.1
				C41.5,10.3,41.5,10.3,41.5,10.3"/>
			<polygon id="Fill-7" class="st1" points="63.3,19.9 63.2,19.9 57.5,11.5 57.5,24.3 55.8,24.3 55.8,8.4 57.6,8.4 63.3,17.1 
				69,8.4 70.8,8.4 70.8,24.3 69,24.3 69,11.4 			"/>
			<path id="Fill-9" class="st1" d="M70.7,8.5v15.7h-1.5V11.4c0,0,0-0.1-0.1-0.1c0,0-0.1,0-0.1,0c0,0-5.6,8.3-5.7,8.4
				c-0.1-0.1-5.7-8.4-5.7-8.4c0,0-0.1-0.1-0.1,0c0,0-0.1,0.1-0.1,0.1v12.7h-1.5V8.5h1.6c0.1,0.1,5.7,8.6,5.7,8.6c0,0,0.1,0,0.1,0
				s0.1,0,0.1,0c0,0,5.6-8.5,5.7-8.6H70.7z M69,8.3C69,8.3,68.9,8.3,69,8.3c-0.1,0-5.5,8.3-5.7,8.6c-0.2-0.3-5.6-8.5-5.6-8.5
				c0,0-0.1,0-0.1,0h-1.8c-0.1,0-0.1,0.1-0.1,0.1v15.9c0,0.1,0.1,0.1,0.1,0.1h1.7c0.1,0,0.1-0.1,0.1-0.1V11.8
				c0.4,0.6,5.5,8.2,5.5,8.2c0,0,0.1,0.1,0.1,0.1c0,0,0.1,0,0.1-0.1c0,0,5.1-7.7,5.5-8.2v12.5c0,0.1,0.1,0.1,0.1,0.1h1.8
				c0.1,0,0.1-0.1,0.1-0.1V8.4c0-0.1,0-0.1-0.1-0.1H69z"/>
			<path id="Fill-11" class="st1" d="M85.6,24.6c-4.9,0-8-3.6-8-8.2c0-4.4,3.2-8.2,7.9-8.2c2.6,0,4.3,0.8,5.8,2.1l-1.1,1.4
				c-1.2-1.1-2.6-1.8-4.8-1.8c-3.5,0-6,3-6,6.5c0,3.8,2.4,6.6,6.2,6.6c1.8,0,3.5-0.7,4.5-1.6v-3.9h-4.8v-1.6h6.5v6.3
				C90.5,23.5,88.3,24.6,85.6,24.6"/>
			<path id="Fill-13" class="st1" d="M77.8,16.4c0-4.6,3.3-8.1,7.8-8.1c2.3,0,4,0.6,5.7,2c-0.1,0.2-0.9,1.1-1,1.2
				c-1.1-0.9-2.4-1.8-4.8-1.8c-3.4,0-6.1,2.9-6.1,6.6c0,4,2.5,6.7,6.3,6.7c1.7,0,3.4-0.6,4.6-1.6l0-4c0-0.1-0.1-0.1-0.1-0.1h-4.7
				v-1.4h6.2v6.2c-1,0.8-3.1,2.3-6.2,2.3C81,24.5,77.8,21.1,77.8,16.4 M77.5,16.4c0,4.9,3.3,8.3,8.1,8.3c3.2,0,5.3-1.5,6.4-2.5
				l0-6.4c0-0.1-0.1-0.1-0.1-0.1h-6.5c-0.1,0-0.1,0.1-0.1,0.1v1.6c0,0.1,0.1,0.1,0.1,0.1h4.7v3.8c-1.1,0.9-2.8,1.5-4.4,1.5
				c-3.6,0-6.1-2.6-6.1-6.5c0-3.6,2.6-6.4,5.8-6.4c2.3,0,3.6,0.9,4.7,1.8c0,0,0.1,0,0.1,0c0,0,0.1,0,0.1,0l1.1-1.4c0,0,0-0.1,0-0.1
				c0,0,0-0.1,0-0.1C89.7,8.7,87.9,8,85.5,8C81,8,77.5,11.7,77.5,16.4"/>
			<path id="Fill-15" class="st1" d="M105.6,10.1h-4.8v6.4h4.8c2.4,0,4-1.2,4-3.3C109.6,11.3,108.2,10.1,105.6,10.1z M109.8,24.3
				l-4.5-6.2h-4.5v6.2H99V8.4h6.7c3.4,0,5.7,1.9,5.7,4.7c0,2.7-1.8,4.2-4.3,4.7l4.8,6.5H109.8z"/>
			<path id="Fill-17" class="st1" d="M105.8,8.5c3.4,0,5.6,1.8,5.6,4.6c0,2.4-1.5,4.1-4.2,4.5c0,0-0.1,0-0.1,0.1c0,0,0,0,0,0
				c0,0,0,0,0,0.1c0,0,4.4,6,4.7,6.3h-1.9c-0.1-0.1-4.5-6.1-4.5-6.1l-4.6,0c-0.1,0-0.1,0-0.1,0.1v6.1h-1.5V8.5H105.8z M99,8.3
				c-0.1,0-0.1,0.1-0.1,0.1v15.9c0,0.1,0,0.1,0.1,0.1h1.8c0.1,0,0.1-0.1,0.1-0.1v-6.1h4.4c0,0.1,4.5,6.1,4.5,6.1c0,0,0.1,0,0.1,0
				h2.2c0,0,0.1,0,0.1-0.1c0,0,0,0,0-0.1c0,0,0,0,0-0.1c0,0-4.5-6.1-4.7-6.4c2.6-0.6,4.2-2.2,4.2-4.7c0-2.9-2.3-4.9-5.8-4.9H99z"/>
			<path id="Fill-19" class="st1" d="M105.6,10.2c2.4,0,3.9,1.1,3.9,3c0,1.9-1.5,3.2-3.9,3.2h-4.7v-6.2H105.6z M100.8,10
				c-0.1,0-0.1,0-0.1,0.1v6.4c0,0.1,0,0.1,0.1,0.1h4.8c2.5,0,4.1-1.3,4.1-3.4c0-2-1.5-3.3-4.1-3.3H100.8z"/>
			<path id="Fill-21" class="st1" d="M125.6,9.8c-3.6,0-6.1,2.9-6.1,6.5s2.6,6.6,6.2,6.6c3.6,0,6.1-2.9,6.1-6.5
				C131.8,12.8,129.2,9.8,125.6,9.8 M125.6,24.6c-4.8,0-8-3.8-8-8.2c0-4.4,3.2-8.2,8-8.2c4.8,0,8,3.8,8,8.2
				C133.6,20.7,130.4,24.6,125.6,24.6"/>
			<path id="Fill-23" class="st1" d="M117.8,16.4c0-4.6,3.5-8.1,7.9-8.1c4.5,0,7.9,3.5,7.9,8.1c0,4.6-3.5,8.1-7.9,8.1
				C121.2,24.5,117.8,21,117.8,16.4 M117.6,16.4c0,4.7,3.5,8.3,8.1,8.3c4.6,0,8.1-3.7,8.1-8.3c0-4.7-3.5-8.3-8.1-8.3
				C121.1,8,117.6,11.7,117.6,16.4"/>
			<path id="Fill-25" class="st1" d="M119.6,16.3c0-3.7,2.6-6.4,6-6.4c3.5,0,6.1,2.8,6.1,6.5c0,3.7-2.6,6.4-6,6.4
				C122.2,22.8,119.6,20,119.6,16.3 M119.4,16.3c0,3.8,2.8,6.7,6.3,6.7c3.6,0,6.2-2.9,6.2-6.6c0-3.8-2.7-6.7-6.3-6.7
				C122.1,9.7,119.4,12.6,119.4,16.3"/>
			<path id="Fill-27" class="st1" d="M146,15.5c3.5,0.8,5.1,2.1,5.1,4.5c0,2.7-2.2,4.5-5.3,4.5c-2.5,0-4.5-0.8-6.4-2.5l1.1-1.3
				c1.6,1.5,3.2,2.2,5.4,2.2c2.1,0,3.5-1.1,3.5-2.7c0-1.5-0.8-2.3-4.1-3c-3.6-0.8-5.3-2-5.3-4.6c0-2.5,2.2-4.4,5.1-4.4
				c2.3,0,3.9,0.7,5.5,2l-1,1.4c-1.5-1.2-2.9-1.7-4.5-1.7c-2,0-3.3,1.1-3.3,2.6C141.8,13.9,142.6,14.8,146,15.5"/>
			<path id="Fill-29" class="st1" d="M149.4,20.2c0-1.7-1-2.5-4.2-3.2c-3.8-0.8-5.2-2-5.2-4.5c0-2.5,2.1-4.2,5-4.2
				c2.1,0,3.7,0.6,5.4,1.9c-0.1,0.2-0.8,1.1-0.9,1.2c-1.4-1.1-2.8-1.7-4.5-1.7c-2,0-3.4,1.1-3.4,2.7c0,1.7,1.1,2.5,4.3,3.2
				c3.5,0.8,5,2.1,5,4.4c0,2.6-2.1,4.4-5.2,4.4c-2.4,0-4.4-0.8-6.2-2.4c0.1-0.1,0.8-1,1-1.1c1.7,1.5,3.3,2.2,5.4,2.2
				C148,23,149.4,21.9,149.4,20.2 M139.9,12.5c0,2.5,1.5,3.9,5.3,4.7c3.4,0.7,4,1.6,4,2.9c0,1.6-1.4,2.6-3.4,2.6
				c-2,0-3.6-0.6-5.3-2.2c0,0-0.1,0-0.1,0c0,0-0.1,0-0.1,0l-1.1,1.3c0,0,0,0.1,0,0.2c1.9,1.8,4,2.6,6.5,2.6c3.3,0,5.5-1.9,5.5-4.6
				c0-2.4-1.6-3.8-5.2-4.6c-3.5-0.8-4.2-1.6-4.2-3c0-1.5,1.3-2.5,3.2-2.5c1.6,0,3.1,0.5,4.5,1.7c0,0,0.1,0,0.1,0c0,0,0.1,0,0.1,0
				l1-1.4c0,0,0-0.1,0-0.2c-1.7-1.4-3.4-2-5.6-2C142.1,8.1,139.9,10,139.9,12.5"/>
			<path id="Fill-2" class="st1" d="M41.6,10.4L38,18.5h7.1L41.6,10.4z M49.6,24.3h-1.9l-1.8-4.2h-8.5l-1.9,4.2h-1.8l7.1-16h1.7
				L49.6,24.3z"/>
			<polygon id="Fill-31" class="st2" points="17.3,27.3 26.9,28.4 25.1,21.5 			"/>
			<polygon id="Fill-33" class="st3" points="8.1,21.5 12,30.5 16.9,25.5 			"/>
			<polygon id="Fill-35" class="st4" points="27.2,11.6 23.6,2.6 18.5,7.4 			"/>
			<polygon id="Fill-37" class="st5" points="8.7,10.8 2.9,18.6 9.6,20.5 			"/>
			<polygon id="Fill-39" class="st6" points="18.2,5.8 8.6,4.5 10.3,11.3 			"/>
		</g>
	</g>
</g>
</svg>
